<svg width="247" height="99" viewBox="0 0 247 99" fill="none" xmlns="http://www.w3.org/2000/svg">
<path d="M188.201 34.6196C193.172 35.1719 197.771 35.8287 203.046 35.8287C213.506 35.8287 234.84 38.4036 242.073 28.5741C243.878 26.1212 245.029 20.4158 245.029 17.2892C245.029 15.8572 244.656 20.1368 244.29 21.5211C242.809 27.1149 240.058 32.2884 237.774 37.5752C231.671 51.7029 225.266 65.6339 220.914 80.431C219.195 86.2771 218.105 99.4153 210.368 96.2837C182.82 85.1334 152.068 81.4099 122.776 78.2144C82.1933 73.7872 42.8031 70.7639 2 72.1017" stroke="white" stroke-width="3" stroke-linecap="round"/>
<path d="M188.201 34.6196C193.172 35.1719 197.771 35.8287 203.046 35.8287C213.506 35.8287 234.84 38.4036 242.073 28.5741C243.878 26.1212 245.029 20.4158 245.029 17.2892C245.029 15.8572 244.656 20.1368 244.29 21.5211C242.809 27.1149 240.058 32.2884 237.774 37.5752C231.671 51.7029 225.266 65.6339 220.914 80.431C219.195 86.2771 218.105 99.4153 210.368 96.2837C182.82 85.1334 152.068 81.4099 122.776 78.2144C82.1933 73.7872 42.8031 70.7639 2 72.1017" stroke="black" stroke-opacity="0.2" stroke-width="3" stroke-linecap="round"/>
<path d="M48.9509 56.113C52.6594 55.7421 56.488 53.7034 59.9671 52.4857C68.2237 49.5958 77.8623 48.1829 85.0223 42.8129C91.509 37.9479 99.733 23.1587 99.733 15.0036C99.733 8.29066 97.171 18.8258 95.434 21.7208C90.4266 30.0665 84.9323 38.9325 80.6561 47.6493C75.2525 58.6644 68.7925 68.2453 60.1014 76.9363C57.0176 80.0202 50.9955 82.7834 55.8024 75.4585C64.9994 61.4441 80.2248 57.4705 96.1057 57.3221C106.976 57.2205 117.597 56.5266 128.416 56.0458C134.8 55.762 142.326 54.8815 147.828 51.2766C149.69 50.0567 148.735 47.8217 150.515 46.7088C152.579 45.4189 152.933 33.6625 152.933 39.7901C152.933 47.4911 152.696 45.555 155.352 38.9169C155.948 37.427 158.697 27.6143 162.002 30.1845C166.787 33.9061 169.203 28.3802 173.757 29.7815C186.476 33.6949 193.124 9.37666 198.879 1.70349" stroke="white" stroke-width="3" stroke-linecap="round"/>
<path d="M48.9509 56.113C52.6594 55.7421 56.488 53.7034 59.9671 52.4857C68.2237 49.5958 77.8623 48.1829 85.0223 42.8129C91.509 37.9479 99.733 23.1587 99.733 15.0036C99.733 8.29066 97.171 18.8258 95.434 21.7208C90.4266 30.0665 84.9323 38.9325 80.6561 47.6493C75.2525 58.6644 68.7925 68.2453 60.1014 76.9363C57.0176 80.0202 50.9955 82.7834 55.8024 75.4585C64.9994 61.4441 80.2248 57.4705 96.1057 57.3221C106.976 57.2205 117.597 56.5266 128.416 56.0458C134.8 55.762 142.326 54.8815 147.828 51.2766C149.69 50.0567 148.735 47.8217 150.515 46.7088C152.579 45.4189 152.933 33.6625 152.933 39.7901C152.933 47.4911 152.696 45.555 155.352 38.9169C155.948 37.427 158.697 27.6143 162.002 30.1845C166.787 33.9061 169.203 28.3802 173.757 29.7815C186.476 33.6949 193.124 9.37666 198.879 1.70349" stroke="black" stroke-opacity="0.2" stroke-width="3" stroke-linecap="round"/>
</svg>
